<svg width="154" height="164" viewBox="0 0 154 164" fill="none" xmlns="http://www.w3.org/2000/svg">
<g id="Group 4">
<g id="Group 2">
<path id="Rectangle 2" d="M0 2L27 27.5V120H0V2Z" fill="white"/>
<path id="Rectangle 3" d="M1.42755 40.4772L20.0063 20.8856L79 77L67.5 102L1.42755 40.4772Z" fill="white"/>
<path id="Rectangle 5" d="M40.7 162.554L40.8647 135.554L97.9418 135.293L127.2 162.554L40.7 162.554Z" fill="white"/>
<rect id="Rectangle 4" y="119.592" width="27" height="58.9808" transform="rotate(-43.52 0 119.592)" fill="white"/>
</g>
<g id="Group 3">
<path id="Rectangle 2_2" d="M153.612 161.077L126.415 135.787L125.697 43.2897L152.696 43.0801L153.612 161.077Z" fill="white"/>
<path id="Rectangle 3_2" d="M151.886 122.612L133.459 142.347L74.0319 86.692L85.3375 61.6035L151.886 122.612Z" fill="white"/>
<path id="Rectangle 5_2" d="M111.667 0.843628L111.712 27.8436L54.6382 28.5475L25.1693 1.51503L111.667 0.843628Z" fill="white"/>
<rect id="Rectangle 4_2" x="152.699" y="43.4877" width="27" height="58.9808" transform="rotate(136.035 152.699 43.4877)" fill="white"/>
</g>
</g>
</svg>
